<svg width="15" height="11" viewBox="0 0 15 11" fill="none" xmlns="http://www.w3.org/2000/svg">
<path d="M13.4843 0H1.58173C0.882751 0 0.3125 0.569631 0.3125 1.26923V9.73077C0.3125 10.428 0.880213 11 1.58173 11H13.4843C14.1815 11 14.7535 10.4323 14.7535 9.73077V1.26923C14.7535 0.572 14.1858 0 13.4843 0ZM13.309 0.846154L7.55992 6.59529L1.76109 0.846154H13.309ZM1.15865 9.55556V1.44041L5.2337 5.48051L1.15865 9.55556ZM1.75697 10.1538L5.83459 6.07623L7.26337 7.49275C7.42877 7.65673 7.69567 7.6562 7.86039 7.49145L9.25353 6.09832L13.3091 10.1538H1.75697ZM13.9074 9.55553L9.85184 5.5L13.9074 1.44444V9.55553Z" fill="#E61743"/>
</svg>
