<svg width="16" height="17" viewBox="0 0 16 17" fill="none" xmlns="http://www.w3.org/2000/svg">
<path d="M13.456 10.7367C12.8777 10.1658 12.1558 10.1658 11.5813 10.7367C11.143 11.1713 10.7047 11.6059 10.2738 12.0478C10.1559 12.1694 10.0565 12.1952 9.91286 12.1141C9.62927 11.9595 9.32726 11.8342 9.05471 11.6648C7.78406 10.8656 6.71966 9.83802 5.7768 8.68154C5.30905 8.10699 4.89287 7.49192 4.60191 6.79951C4.54298 6.65955 4.55403 6.56747 4.6682 6.4533C5.10648 6.02975 5.53372 5.59515 5.96463 5.16055C6.56497 4.55653 6.56497 3.84938 5.96095 3.24168C5.61843 2.89547 5.2759 2.55663 4.93338 2.21043C4.57981 1.85685 4.22992 1.4996 3.87266 1.14971C3.29442 0.586203 2.57255 0.586203 1.99799 1.15339C1.55602 1.58799 1.13247 2.03364 0.683142 2.46087C0.266957 2.85496 0.0570233 3.33744 0.0128267 3.90095C-0.0571512 4.81803 0.167515 5.68354 0.484257 6.52696C1.13247 8.27273 2.11953 9.82329 3.31652 11.2449C4.93338 13.1675 6.8633 14.6886 9.12101 15.7861C10.1375 16.2797 11.1909 16.659 12.3363 16.7216C13.1245 16.7658 13.8095 16.5669 14.3583 15.9519C14.734 15.532 15.1575 15.149 15.5553 14.7475C16.1446 14.1509 16.1483 13.429 15.5627 12.8397C14.8629 12.1362 14.1594 11.4365 13.456 10.7367Z" fill="#E61743"/>
</svg>
